<svg xmlns="http://www.w3.org/2000/svg" width="37" height="57" fill="currentColor" viewBox="0 0 37 57">
  <path d="M28.645 44.17c0-1.131-.401-2.107-1.204-2.927-.802-.82-1.768-1.231-2.899-1.231-1.13 0-2.106.41-2.926 1.23-.82.821-1.231 1.797-1.231 2.927 0 1.167.41 2.152 1.23 2.954.821.803 1.797 1.204 2.927 1.204 1.13 0 2.097-.401 2.9-1.204.802-.802 1.203-1.787 1.203-2.954Zm-4.103 8.697c2.37 0 4.404-.848 6.1-2.544 1.695-1.696 2.543-3.747 2.543-6.154 0-2.406-.848-4.458-2.544-6.154-1.695-1.695-3.728-2.543-6.099-2.543-2.407 0-4.449.848-6.126 2.543-1.678 1.696-2.517 3.748-2.517 6.154 0 2.407.84 4.459 2.517 6.154 1.677 1.696 3.72 2.544 6.126 2.544Zm8.698-20.568c.766 0 1.422.274 1.969.82.547.548.82 1.204.82 1.97v18.16c0 .767-.273 1.423-.82 1.97a2.686 2.686 0 0 1-1.97.82H15.79a2.597 2.597 0 0 1-1.942-.82 2.733 2.733 0 0 1-.793-1.97V35.09c0-.766.264-1.422.793-1.97a2.597 2.597 0 0 1 1.942-.82h17.45ZM23.12.41c.693 0 1.276.236 1.75.71s.711 1.058.711 1.75v27.133h-1.914V2.268H2.443v41.3h8.315v9.682c0 .474.109.911.328 1.313.219.4.492.729.82.984.11.073.146.174.11.301-.037.128-.11.192-.22.192H2.99a2.315 2.315 0 0 1-1.696-.712 2.315 2.315 0 0 1-.711-1.695V2.87c0-.693.237-1.277.711-1.75A2.315 2.315 0 0 1 2.99.407h20.13Z"/>
</svg>
