<svg xmlns="http://www.w3.org/2000/svg" width="21" height="21" fill="currentColor" viewBox="0 0 21 21">
  <path d="M10.7.34a9.73 9.73 0 0 0-3.887.781A10.006 10.006 0 0 0 3.62 3.26a10.006 10.006 0 0 0-2.139 3.193 9.731 9.731 0 0 0-.78 3.887c0 1.38.26 2.676.78 3.887a10.006 10.006 0 0 0 2.14 3.193 10.003 10.003 0 0 0 3.192 2.139c1.211.52 2.507.781 3.887.781s2.676-.26 3.887-.781a10.005 10.005 0 0 0 3.193-2.139 10.006 10.006 0 0 0 2.139-3.193 9.73 9.73 0 0 0 .781-3.887 9.73 9.73 0 0 0-.781-3.887A10.006 10.006 0 0 0 17.78 3.26a10.006 10.006 0 0 0-3.193-2.139A9.731 9.731 0 0 0 10.7.34Zm.586 18.789v-1.738c0-.17-.052-.31-.156-.42a.561.561 0 0 0-.43-.166.561.561 0 0 0-.43.166.588.588 0 0 0-.156.42v1.738a8.836 8.836 0 0 1-3.086-.781A9.042 9.042 0 0 1 4.48 16.56a9.039 9.039 0 0 1-1.787-2.55 8.302 8.302 0 0 1-.78-3.085H3.65c.17 0 .31-.052.42-.156a.562.562 0 0 0 .166-.43.562.562 0 0 0-.166-.43.588.588 0 0 0-.42-.156H1.911a8.836 8.836 0 0 1 .781-3.086A9.039 9.039 0 0 1 4.48 4.12a9.039 9.039 0 0 1 2.55-1.787 8.302 8.302 0 0 1 3.085-.781V3.29c0 .17.052.31.156.42.105.11.248.166.43.166a.562.562 0 0 0 .43-.166.589.589 0 0 0 .156-.42V1.551a8.837 8.837 0 0 1 3.086.781 9.04 9.04 0 0 1 2.549 1.787 9.038 9.038 0 0 1 1.787 2.55c.456.963.716 1.991.781 3.085h-1.738c-.17 0-.31.052-.42.156a.561.561 0 0 0-.166.43c0 .182.055.325.166.43.11.104.25.156.42.156h1.738a8.302 8.302 0 0 1-.781 3.086 9.038 9.038 0 0 1-1.787 2.549 9.043 9.043 0 0 1-2.549 1.787 8.303 8.303 0 0 1-3.086.781Zm1.758-9.375h-1.64l-.06-.02c-.038-.013-.058-.045-.058-.097V5.633c0-.17-.052-.31-.156-.42a.562.562 0 0 0-.43-.166.562.562 0 0 0-.43.166.588.588 0 0 0-.156.42v4.004c0 .351.127.654.381.908s.557.38.908.38h1.64a.615.615 0 0 0 .44-.155.561.561 0 0 0 .166-.43.561.561 0 0 0-.166-.43.615.615 0 0 0-.44-.156Z"/>
</svg>
