<svg xmlns="http://www.w3.org/2000/svg" width="21" height="17" fill="currentColor" viewBox="0 0 21 17">
  <path d="M19.683 5.762V3.164c0-.833-.286-1.54-.86-2.119-.572-.58-1.275-.87-2.109-.87H3.61c-.833 0-1.537.29-2.11.87-.572.58-.859 1.286-.859 2.12v10.35c0 .834.287 1.54.86 2.12.572.58 1.276.869 2.109.869h13.105c.834 0 1.537-.29 2.11-.87.573-.579.86-1.285.86-2.118v-2.48c.286-.183.517-.424.692-.723.176-.3.264-.619.264-.957V7.442a1.86 1.86 0 0 0-.264-.958 2.093 2.093 0 0 0-.693-.722Zm-.234 3.594c0 .234-.078.43-.235.586a.82.82 0 0 1-.605.234h-6.055a.82.82 0 0 1-.605-.234.795.795 0 0 1-.235-.586V7.442c0-.235.079-.43.235-.586a.82.82 0 0 1 .605-.235h6.055a.82.82 0 0 1 .605.235.795.795 0 0 1 .235.586v1.914Zm-2.735 5.957H3.61c-.469 0-.882-.18-1.24-.538-.358-.358-.537-.777-.537-1.26V3.166c0-.483.179-.903.537-1.26.358-.359.771-.538 1.24-.538h13.105c.47 0 .883.18 1.24.537.359.358.538.778.538 1.26V5.43h-5.938c-.547 0-1.022.202-1.426.605-.403.404-.605.873-.605 1.407v1.914c0 .533.202 1.002.605 1.406.404.403.88.605 1.426.605h5.938v2.149c0 .482-.18.901-.537 1.26-.358.358-.772.537-1.24.537ZM12.671 7.93a.298.298 0 0 0-.107.224c-.007.098-.01.18-.01.245s.003.127.01.185c.006.059.042.114.107.166a.71.71 0 0 0 .225.176.55.55 0 0 0 .244.078.276.276 0 0 0 .186-.078c.058-.052.114-.11.166-.176.065 0 .12-.042.166-.127a.487.487 0 0 0 .068-.224.52.52 0 0 0-.068-.284.755.755 0 0 0-.166-.185.562.562 0 0 0-.41-.176.562.562 0 0 0-.41.176Z"/>
</svg>
