<svg xmlns="http://www.w3.org/2000/svg" width="49" height="51" fill="currentColor" viewBox="0 0 49 51">
  <path d="M22.023 18.14H1.896c-.183 0-.347.037-.493.11a2.88 2.88 0 0 0-.437.274c-.11.146-.2.291-.274.437-.073.146-.109.31-.109.493v29.59c0 .182.036.346.11.492.072.146.163.292.273.438.146.109.292.19.437.246.146.054.31.082.493.082h20.127c.146 0 .301-.037.465-.11.165-.073.301-.164.41-.273a.835.835 0 0 0 .301-.41c.055-.165.1-.338.137-.52V19.454a3.173 3.173 0 0 0-.137-.493 1.26 1.26 0 0 0-.3-.437c-.11-.11-.247-.2-.41-.274a1.148 1.148 0 0 0-.466-.11Zm-10.118 1.314a.25.25 0 0 1 .11.027.243.243 0 0 0 .109.027l.11.11c.036.036.054.073.054.11a.185.185 0 0 1 .054.136V20c0 .036-.018.072-.054.109-.037.036-.055.073-.055.11a.43.43 0 0 1-.11.081.382.382 0 0 1-.163.028h-.22a.43.43 0 0 0-.109-.082.43.43 0 0 1-.109-.082.186.186 0 0 1-.055-.137v-.137c0-.036.01-.082.028-.137.018-.054.045-.118.082-.191a.344.344 0 0 1 .136-.082.603.603 0 0 1 .192-.027Zm.055 30.355a.804.804 0 0 1-.301-.054 1.68 1.68 0 0 1-.301-.164.858.858 0 0 1-.219-.165.685.685 0 0 1-.164-.273.957.957 0 0 1-.055-.3v-.302c.037-.109.073-.21.11-.3a.728.728 0 0 1 .164-.247.728.728 0 0 1 .246-.164c.091-.036.191-.073.3-.109h.302c.09 0 .191.018.3.055.11.036.201.09.274.164a.86.86 0 0 1 .164.218.688.688 0 0 1 .164.274c.037.11.055.219.055.328 0 .11-.028.228-.082.356a1.136 1.136 0 0 1-.246.355c-.11.11-.22.192-.329.246a.845.845 0 0 1-.382.082Zm9.298-2.625H2.66V21.259h18.597v25.925ZM35.424 8.843H8.869a.543.543 0 0 0-.246.054 1.437 1.437 0 0 0-.219.137c-.073.055-.145.1-.218.137a.857.857 0 0 0-.164.219l-.11.219a.976.976 0 0 0-.082.246 1.267 1.267 0 0 0-.027.246v7H9.88v-4.156h24.777v33.2H24.321v2.68c0 .437-.037.766-.11.984-.073.22-.273.383-.601.493h11.814c.11 0 .2-.01.273-.028.073-.018.146-.045.219-.082.11 0 .191-.027.246-.082l.192-.191a.358.358 0 0 0 .164-.164l.109-.22c.036-.108.064-.2.082-.273.018-.072.027-.164.027-.273V10.101a1.28 1.28 0 0 0-.027-.246.973.973 0 0 0-.082-.246l-.11-.22a.858.858 0 0 0-.163-.218.73.73 0 0 1-.192-.137.623.623 0 0 0-.246-.137.485.485 0 0 0-.219-.054h-.273Zm-13.127 2.57a.38.38 0 0 1-.164-.027l-.164-.082c-.037 0-.073-.027-.11-.082a.266.266 0 0 1-.054-.137.186.186 0 0 1-.055-.137v-.136l.082-.164a.431.431 0 0 1 .082-.11l.11-.11c.036-.036.09-.054.164-.054h.136c.055 0 .1.018.137.055.073 0 .128.018.164.055l.11.109c0 .037.009.082.027.137a.607.607 0 0 1 .027.191.752.752 0 0 1-.027.164.245.245 0 0 1-.137.164c-.036.073-.082.119-.137.137a.607.607 0 0 1-.191.028Zm14.822 38.889h9.572c.073 0 .155-.01.246-.028a2.52 2.52 0 0 0 .3-.082l.22-.11a.858.858 0 0 0 .218-.163 2.09 2.09 0 0 0 .192-.219c.055-.073.1-.146.137-.219a.978.978 0 0 0 .082-.246 1.54 1.54 0 0 0 .027-.3V2.114c0-.218-.036-.419-.11-.601a2.14 2.14 0 0 0-.273-.493 1.882 1.882 0 0 0-.492-.355 1.213 1.213 0 0 0-.547-.137H14.31a.921.921 0 0 0-.52.164c-.163.11-.318.237-.464.383-.11.146-.2.31-.274.492a.945.945 0 0 0-.054.547v5.689h2.024V3.7a.9.9 0 0 1 .027-.218c.018-.073.045-.146.082-.22 0-.072.018-.136.055-.19a.412.412 0 0 1 .164-.137.412.412 0 0 1 .136-.164 1.82 1.82 0 0 1 .192-.11.607.607 0 0 0 .191-.027.606.606 0 0 1 .192-.027h28.933c.146 0 .283.027.41.082.128.054.247.118.356.191.073.11.137.228.192.356.054.127.082.264.082.41v43.537c0 .146-.028.283-.082.41a2.2 2.2 0 0 1-.192.356 2.2 2.2 0 0 1-.355.191 1.03 1.03 0 0 1-.41.082h-7.22v.93c0 .11-.01.219-.028.328a.842.842 0 0 1-.136.328.76.76 0 0 1-.192.301.766.766 0 0 1-.3.192Z"/>
</svg>
