<svg xmlns="http://www.w3.org/2000/svg" width="25" height="45" fill="currentColor" viewBox="0 0 25 45">
  <path d="M24.384 20.455v-5.198h-1.04v-1.75a4.07 4.07 0 0 0-.164-1.123 5.036 5.036 0 0 0-.438-1.066 6.04 6.04 0 0 0-.793-1.04 7.51 7.51 0 0 1-.793-.985 9.374 9.374 0 0 1-.848-1.504 7.567 7.567 0 0 1-.52-1.615 8.45 8.45 0 0 1-.246-1.805 11.64 11.64 0 0 0-.192-1.806 1.703 1.703 0 0 0-.219-.602 1.507 1.507 0 0 0-.383-.437 2.177 2.177 0 0 0-.547-.329 1.606 1.606 0 0 0-.602-.109 18.536 18.536 0 0 0-1.45-.164 514.46 514.46 0 0 1-1.45-.11 19.653 19.653 0 0 0-1.504-.054h-1.56a25.249 25.249 0 0 0-5.745.437 1.61 1.61 0 0 0-.766.438c-.11.11-.2.228-.273.356a.725.725 0 0 0-.11.355c-.073.292-.136.72-.191 1.286-.055.566-.1 1.049-.137 1.45a8.16 8.16 0 0 1-.602 2.49 7.73 7.73 0 0 1-1.368 2.16l-.437.493c-.22.22-.42.456-.602.712a3.551 3.551 0 0 0-.438.82 2.609 2.609 0 0 0-.3.848c-.056.31-.083.611-.083.903v18.001c0 .329.027.648.082.958.055.31.137.61.246.903.146.255.31.51.493.766.182.255.383.492.602.71.328.256.629.548.902.876.274.329.52.675.739 1.04.182.365.337.748.465 1.149s.21.802.246 1.204c.073.62.11 1.23.11 1.833 0 .601.054 1.194.164 1.778.036.146.1.283.191.41.092.128.192.246.301.356.11.11.237.191.383.246.146.055.292.1.438.137 1.021.182 2.061.31 3.119.383 1.058.073 2.115.091 3.173.054a25.254 25.254 0 0 0 5.745-.437 1.608 1.608 0 0 0 .766-.438 1.608 1.608 0 0 0 .438-.766c.073-.255.11-.93.11-2.024 0-1.095.236-2.061.71-2.9.183-.292.53-.83 1.04-1.614l.766-1.177.082-.11c.055-.072.1-.109.137-.109.401-.437.72-.93.958-1.477.237-.547.355-1.13.355-1.75V20.454h1.04Zm-2.08 11.052c0 .438-.072.867-.218 1.286a2.77 2.77 0 0 1-.657 1.067 3.528 3.528 0 0 1-1.012.793 2.609 2.609 0 0 1-1.231.301H4.741c-.437 0-.857-.1-1.258-.3a3.427 3.427 0 0 1-1.04-.794 2.77 2.77 0 0 1-.656-1.067c-.146-.42-.2-.848-.164-1.286v-18a2.914 2.914 0 0 1 .164-1.232c.146-.42.364-.793.656-1.122a3.08 3.08 0 0 1 1.04-.766c.401-.182.82-.291 1.258-.328h14.445c.438.037.848.146 1.231.329.383.182.72.437 1.012.765.292.329.51.703.657 1.122.146.42.219.83.219 1.231v18.001Z"/>
</svg>
