<svg xmlns="http://www.w3.org/2000/svg" width="73" height="43" fill="currentColor" viewBox="0 0 73 43">
  <path d="M43.622 40.22V18.947c0-.474-.127-.848-.383-1.121-.255-.274-.638-.41-1.148-.41H6.216c-.51 0-.893.127-1.149.382-.255.255-.382.638-.382 1.149V40.22H.583a.61.61 0 0 1 .11.191c.036.092.072.137.109.137l1.394.684c.93.456 2.051.72 3.364.793a72.94 72.94 0 0 0 3.609.218l1.64.055h26.688l1.531-.055a74.69 74.69 0 0 0 3.5-.218c1.35-.073 2.48-.337 3.39-.793l1.368-.684c.073 0 .164-.036.274-.11a.619.619 0 0 0 .218-.218h-4.156ZM6.708 19.494h34.89V40.22H6.709V19.494Zm48.18 22.804h.054l.137-.137a.262.262 0 0 0 .082-.19.37.37 0 0 0-.383-.384h-.054a2.933 2.933 0 0 1-1.914-.574 2.668 2.668 0 0 1-1.094-1.668l-.875-4.32H70.8c.365 0 .712-.173 1.04-.52.328-.346.492-.702.492-1.066V2.43c0-.365-.164-.72-.492-1.066-.328-.347-.675-.52-1.04-.52H24.7c-.365 0-.72.173-1.067.52-.347.346-.52.701-.52 1.066l.055 13.945h2.023V2.923H70.31v25.922H44.66v10.336h4.102v1.04c0 .801-.51 1.348-1.532 1.64l-1.53.437h9.187Zm-6.18-9.515c0 .036-.01.072-.027.109l-.028.055a.429.429 0 0 0-.082.109l-.027.055c-.036.036-.064.054-.082.054-.018 0-.027.019-.027.055l-.028.027c-.018.019-.045.028-.082.028l-.027.027c-.018.018-.046.028-.082.028l-.028-.028c-.018-.018-.045-.027-.082-.027h-.109c0-.037-.009-.055-.027-.055h-.328c-.019 0-.046.018-.082.055h-.055c-.037 0-.055.018-.055.055h-.164l-.055-.055h-.054c0-.037-.01-.064-.028-.082-.018-.018-.045-.028-.082-.028 0-.036-.009-.063-.027-.082a50.478 50.478 0 0 0-.082-.082c-.036-.036-.055-.073-.055-.109 0-.037-.018-.073-.054-.11a.243.243 0 0 0-.028-.109.43.43 0 0 0-.082-.11v-.218c-.036-.036-.054-.073-.054-.11v-.109c0-.073.009-.136.027-.191a.45.45 0 0 0 .027-.137.343.343 0 0 0 .082-.136.343.343 0 0 1 .082-.137c0-.037.019-.064.055-.082a.427.427 0 0 0 .11-.082.45.45 0 0 0 .136-.028.448.448 0 0 1 .137-.027c.036 0 .073.01.11.027a.243.243 0 0 0 .109.028.636.636 0 0 1 .136.082c.019.018.046.027.082.027v-.027c0-.019.019-.028.055-.028h.055c.036 0 .054-.018.054-.054h.082c.019 0 .046-.018.082-.055h.11a.38.38 0 0 1 .164.027.428.428 0 0 1 .11.082c.072 0 .127.019.163.055.037.037.055.073.055.11l-.11.109-.109.11a.45.45 0 0 1-.027.136.607.607 0 0 0-.027.191.45.45 0 0 0 .109.274.638.638 0 0 0 .11.164c.036.036.09.054.163.054-.036.037-.054.064-.054.083 0 .018-.018.045-.055.082Zm-.984-1.586.027-.055a.243.243 0 0 0 .027-.11.43.43 0 0 0 .082-.109l.028-.054.082-.082.082-.082c.036 0 .073-.01.11-.028a.243.243 0 0 1 .108-.027v.164c0 .036-.018.073-.054.11 0 .036-.01.072-.028.109a.43.43 0 0 1-.082.109.119.119 0 0 0-.082.027l-.082.082a.115.115 0 0 0-.082.028c-.018.018-.045.027-.082.027h-.054v-.109Z"/>
</svg>
