<svg width="18" height="13" viewBox="0 0 18 13" fill="none" xmlns="http://www.w3.org/2000/svg">
<g clip-path="url(#clip0_2_1027)">
<path d="M8.01599 6.55664C8.25037 6.08789 8.48474 5.61914 8.71912 5.15039C8.94568 4.68164 9.17615 4.21094 9.41052 3.73828C9.6449 3.26563 9.87927 2.79492 10.1136 2.32617C10.3402 1.84961 10.5707 1.37305 10.8051 0.896484C10.8207 0.927734 10.8344 0.953125 10.8461 0.972656C10.8578 0.992187 10.8676 1.01367 10.8754 1.03711C11.0082 1.35742 11.141 1.67773 11.2738 1.99805C11.4066 2.31055 11.5394 2.62695 11.6722 2.94727C11.8051 3.26758 11.9379 3.58789 12.0707 3.9082C12.1957 4.22852 12.3246 4.54883 12.4574 4.86914C12.5902 5.18945 12.7269 5.50977 12.8676 5.83008C13.0004 6.15039 13.1332 6.47266 13.266 6.79688C13.3988 7.12109 13.5316 7.44336 13.6644 7.76367C13.7972 8.08398 13.9301 8.4043 14.0629 8.72461C14.2113 9.07617 14.3578 9.42773 14.5023 9.7793C14.6469 10.1309 14.7894 10.4824 14.9301 10.834C14.9535 10.8887 14.9828 10.9277 15.0179 10.9512C15.0531 10.9746 15.1058 10.9863 15.1761 10.9863C15.2855 10.9785 15.3969 10.9766 15.5101 10.9805C15.6234 10.9844 15.7386 10.9863 15.8558 10.9863C15.9105 10.9785 15.9496 10.9863 15.973 11.0098C15.9965 11.0332 16.0043 11.0723 15.9965 11.127C15.9965 11.2129 15.9965 11.2988 15.9965 11.3848C15.9965 11.4707 15.9965 11.5566 15.9965 11.6426C15.9965 11.7129 15.9886 11.7578 15.973 11.7773C15.9574 11.7969 15.9105 11.8066 15.8324 11.8066C15.348 11.8066 14.8636 11.8047 14.3793 11.8008C13.8949 11.7969 13.4105 11.7949 12.9261 11.7949C12.5043 11.7949 12.0863 11.7969 11.6722 11.8008C11.2582 11.8047 10.8441 11.8066 10.4301 11.8066C10.3363 11.8066 10.2816 11.7969 10.266 11.7773C10.2504 11.7578 10.2426 11.7051 10.2426 11.6191C10.2426 11.5332 10.2426 11.4473 10.2426 11.3613C10.2426 11.2754 10.2426 11.1895 10.2426 11.1035C10.2426 11.0645 10.2523 11.0332 10.2719 11.0098C10.2914 10.9863 10.3246 10.9785 10.3715 10.9863C10.5121 10.9863 10.6547 10.9863 10.7992 10.9863C10.9437 10.9863 11.0902 10.9863 11.2386 10.9863C11.309 10.9863 11.35 10.9766 11.3617 10.957C11.3734 10.9375 11.3636 10.8965 11.3324 10.834C11.1371 10.3496 10.9379 9.86523 10.7347 9.38086C10.5316 8.89648 10.3324 8.41602 10.1371 7.93945C10.1215 7.91602 10.1097 7.89258 10.1019 7.86914C10.0941 7.8457 10.0824 7.82227 10.0668 7.79883C10.0668 7.79883 10.0629 7.79883 10.0551 7.79883C10.0472 7.79883 10.0394 7.79883 10.0316 7.79883C9.86755 8.12695 9.69958 8.45508 9.52771 8.7832C9.36365 9.11914 9.19568 9.45312 9.0238 9.78516C8.85193 10.1172 8.68005 10.4512 8.50818 10.7871C8.34412 11.123 8.17615 11.459 8.00427 11.7949C7.8324 11.459 7.66052 11.123 7.48865 10.7871C7.31677 10.4512 7.14685 10.1172 6.97888 9.78516C6.81091 9.45312 6.6449 9.11914 6.48083 8.7832C6.30896 8.45508 6.14099 8.12305 5.97693 7.78711C5.96912 7.78711 5.9613 7.78711 5.95349 7.78711C5.94568 7.78711 5.93787 7.78711 5.93005 7.78711C5.7113 8.31836 5.49255 8.84766 5.2738 9.375C5.05505 9.90234 4.8324 10.4316 4.60583 10.9629C4.6449 10.9707 4.6781 10.9746 4.70544 10.9746C4.73279 10.9746 4.75818 10.9746 4.78162 10.9746C4.91443 10.9824 5.04724 10.9844 5.18005 10.9805C5.31287 10.9766 5.44958 10.9746 5.59021 10.9746C5.66833 10.9746 5.71521 10.9824 5.73083 10.998C5.74646 11.0137 5.75427 11.0605 5.75427 11.1387C5.75427 11.2246 5.75427 11.3086 5.75427 11.3906C5.75427 11.4727 5.75427 11.5527 5.75427 11.6309C5.75427 11.709 5.74646 11.7559 5.73083 11.7715C5.71521 11.7871 5.66833 11.7949 5.59021 11.7949C5.12927 11.7949 4.66833 11.7949 4.2074 11.7949C3.74646 11.7949 3.28552 11.7949 2.82458 11.7949C2.38708 11.7949 1.94958 11.7949 1.51208 11.7949C1.07458 11.7949 0.637085 11.7949 0.199585 11.7949C0.105835 11.7949 0.0491943 11.7871 0.0296631 11.7715C0.0101318 11.7559 0.000366211 11.7012 0.000366211 11.6074C0.000366211 11.5215 0.000366211 11.4375 0.000366211 11.3555C0.000366211 11.2734 0.000366211 11.1895 0.000366211 11.1035C0.000366211 11.0566 0.0101318 11.0234 0.0296631 11.0039C0.0491943 10.9844 0.0863037 10.9746 0.140991 10.9746C0.258179 10.9824 0.377319 10.9844 0.498413 10.9805C0.619507 10.9766 0.742554 10.9746 0.867554 10.9746C0.914429 10.9824 0.953491 10.9766 0.984741 10.957C1.01599 10.9375 1.03943 10.9043 1.05505 10.8574C1.23474 10.4277 1.41248 10 1.58826 9.57422C1.76404 9.14844 1.94177 8.7207 2.12146 8.29102C2.26208 7.96289 2.3988 7.63477 2.53162 7.30664C2.66443 6.97852 2.79919 6.65039 2.93591 6.32227C3.07263 5.99414 3.2113 5.66602 3.35193 5.33789C3.48474 5.00977 3.62146 4.67773 3.76208 4.3418C3.98865 3.80273 4.21326 3.25977 4.43591 2.71289C4.65857 2.16602 4.88318 1.61914 5.10974 1.07227C5.12537 1.04883 5.13904 1.02344 5.15076 0.996094C5.16248 0.96875 5.17615 0.935547 5.19177 0.896484C5.42615 1.37305 5.66052 1.84961 5.8949 2.32617C6.12927 2.79492 6.36169 3.26563 6.59216 3.73828C6.82263 4.21094 7.05505 4.68164 7.28943 5.15039C7.51599 5.61914 7.74646 6.08789 7.98083 6.55664C7.98865 6.55664 7.99451 6.55664 7.99841 6.55664C8.00232 6.55664 8.00818 6.55664 8.01599 6.55664Z" fill="#EB5757"/>
</g>
<defs>
<clipPath id="clip0_2_1027">
<rect width="17.45" height="12" fill="white" transform="matrix(1 0 0 -1 0 12.1699)"/>
</clipPath>
</defs>
</svg>
