<svg xmlns="http://www.w3.org/2000/svg" width="19" height="13" fill="currentColor" viewBox="0 0 19 13">
  <g clip-path="url(#a)">
    <path d="m8.6 6.552.702-1.406a309.683 309.683 0 0 1 1.395-2.824c.226-.477.457-.953.691-1.43l.041.076c.012.02.022.041.03.065l.398.96c.133.313.266.63.398.95l.399.96a49.452 49.452 0 0 0 .797 1.923c.133.32.265.642.398.966.133.325.266.647.399.967l.398.961a121.002 121.002 0 0 1 .867 2.11.257.257 0 0 0 .088.117.288.288 0 0 0 .158.035c.11-.008.221-.01.334-.006.113.004.229.006.346.006.055-.008.094 0 .117.023.024.024.031.063.024.118v.515c0 .07-.008.115-.024.135-.015.02-.062.03-.14.03-.485 0-.97-.003-1.454-.007a180.475 180.475 0 0 0-2.707 0c-.414.004-.828.006-1.242.006-.094 0-.148-.01-.164-.03-.015-.019-.023-.071-.023-.157v-.516c0-.039.01-.07.029-.094.02-.023.053-.03.1-.023h.867c.07 0 .111-.01.123-.03.011-.019.002-.06-.03-.122-.195-.485-.394-.97-.597-1.454a238.59 238.59 0 0 1-.598-1.44.296.296 0 0 1-.035-.071.3.3 0 0 0-.035-.07h-.035a57.22 57.22 0 0 1-.504.984c-.164.336-.332.67-.504 1.002l-.516 1.002c-.164.336-.332.672-.504 1.008l-.515-1.008-.51-1.002a79.752 79.752 0 0 1-.498-1.002c-.172-.328-.34-.66-.504-.996h-.047a660.6 660.6 0 0 1-.656 1.588c-.219.527-.441 1.056-.668 1.588a.583.583 0 0 0 .1.011h.076c.133.008.265.01.398.006s.27-.006.41-.006c.078 0 .125.008.141.024.016.015.023.062.023.14v.492c0 .079-.007.126-.023.141-.016.016-.063.024-.14.024H.782c-.094 0-.15-.008-.17-.024-.02-.015-.03-.07-.03-.164v-.504c0-.047.01-.08.03-.1.02-.019.056-.029.111-.029.117.008.236.01.358.006.12-.004.244-.006.369-.006a.164.164 0 0 0 .117-.017.178.178 0 0 0 .07-.1c.18-.43.358-.857.533-1.283.176-.426.354-.854.534-1.283.14-.329.277-.657.41-.985a104.37 104.37 0 0 1 .82-1.968c.133-.329.27-.66.41-.997.227-.539.451-1.082.674-1.628.223-.547.447-1.094.674-1.641a.472.472 0 0 0 .04-.076 2.07 2.07 0 0 0 .042-.1l.703 1.43c.234.469.467.94.697 1.412a158 158 0 0 0 .698 1.412c.226.469.457.938.691 1.406h.035Z"/>
  </g>
  <defs>
    <clipPath id="a">
      <path d="M.583 12.165h17.45v-12H.583z"/>
    </clipPath>
  </defs>
</svg>
