<svg xmlns="http://www.w3.org/2000/svg" width="37" height="49" fill="currentColor" viewBox="0 0 37 49">
  <path d="M13.494 47.267H3.482c-.255 0-.492-.045-.71-.137a1.863 1.863 0 0 1-.603-.41 1.862 1.862 0 0 1-.41-.602 1.83 1.83 0 0 1-.137-.71V8.7c0-.256.046-.502.137-.739a1.33 1.33 0 0 1 .41-.574c.183-.183.383-.32.602-.41a1.83 1.83 0 0 1 .711-.137h1.806c.073 0 .164.027.273.082.11.054.183.136.22.246v.875c0 .11.026.219.081.328.055.11.137.22.246.329.11.073.22.127.329.164.109.036.237.054.382.054h6.182V5.8h-9.3c-.437 0-.839.073-1.203.219a2.915 2.915 0 0 0-.985.656 3.2 3.2 0 0 0-.684 1.013 3.091 3.091 0 0 0-.246 1.23v36.27c0 .438.082.84.246 1.204.164.365.392.693.684.985.292.291.62.52.985.683a2.9 2.9 0 0 0 1.203.247h10.723a6.26 6.26 0 0 1-.52-.465 2.189 2.189 0 0 1-.41-.575ZM9.117 7.058h2.626l.055.028a.427.427 0 0 1 .11.082c.036 0 .054.018.054.055v.219c0 .036-.018.054-.055.054a.427.427 0 0 1-.11.082l-.054.027H9.117c-.036 0-.064-.009-.082-.027l-.082-.082c-.036 0-.064-.018-.082-.055a.243.243 0 0 1-.027-.11.24.24 0 0 1 .027-.108c.018-.037.046-.055.082-.055l.082-.082c.018-.018.046-.028.082-.028ZM33.352.603H17.487a3.18 3.18 0 0 0-1.285.274c-.42.182-.794.419-1.122.71a3.522 3.522 0 0 0-.766 1.15 3.39 3.39 0 0 0-.273 1.313v40.81c0 .438.09.876.273 1.313.182.438.438.82.766 1.149.328.292.702.529 1.121.711.42.182.867.274 1.34.274h15.81a3.33 3.33 0 0 0 1.341-.274c.42-.182.793-.42 1.122-.711.328-.328.583-.711.766-1.149.182-.438.273-.875.273-1.313V4.05c0-.438-.091-.876-.273-1.313a3.526 3.526 0 0 0-.766-1.15 4.188 4.188 0 0 0-1.122-.71 3.325 3.325 0 0 0-1.34-.274Zm-5.307 1.149c.037 0 .073.01.11.027a.242.242 0 0 0 .11.028.427.427 0 0 1 .081.11.242.242 0 0 1 .028.108c.036.037.054.073.054.11v.11a.247.247 0 0 1-.027.109c-.018.036-.046.054-.082.054a.43.43 0 0 1-.11.082.243.243 0 0 1-.109.028c-.036.036-.073.055-.11.055-.036 0-.072-.019-.109-.055-.036 0-.073-.018-.11-.055-.036-.036-.054-.073-.054-.11-.036 0-.055-.018-.055-.054v-.274c0-.036.01-.063.028-.082l.082-.082.027-.027c.018-.018.046-.027.082-.027.037 0 .064-.01.082-.028.018-.018.046-.027.082-.027Zm-4.43.383c0-.037.008-.073.027-.11l.027-.054c.036-.037.064-.055.082-.055h3.364l.028.027a8.386 8.386 0 0 0 .054.055l.028.027V2.3l-.028.027-.027.028-.027.027-.028.027h-3.337c-.036 0-.054-.009-.054-.027 0-.018-.019-.027-.055-.027V2.3c-.037-.036-.055-.064-.055-.082v-.082Zm12.199 43.053c0 .292-.055.566-.164.821a2.07 2.07 0 0 1-.438.657 2.876 2.876 0 0 1-.711.437c-.256.11-.51.164-.766.164H17.159c-.292 0-.565-.055-.82-.164a2.07 2.07 0 0 1-.657-.438 2.07 2.07 0 0 1-.438-.656 2.061 2.061 0 0 1-.164-.82V3.72c0-.291.055-.565.164-.82a2.07 2.07 0 0 1 .438-.657 2.07 2.07 0 0 1 .656-.437 2.06 2.06 0 0 1 .82-.164h1.533c.11 0 .219.036.328.109a.53.53 0 0 1 .219.328v.657c0 .073.009.146.027.218.018.073.046.146.082.22a.634.634 0 0 1 .11.163.358.358 0 0 0 .164.165.634.634 0 0 0 .383.164.485.485 0 0 0 .218.054h10.45a.486.486 0 0 0 .218-.054.337.337 0 0 0 .191-.055c.055-.037.12-.073.192-.11.073-.072.128-.136.164-.19a.903.903 0 0 1 .11-.138c.036-.073.063-.146.082-.219a.901.901 0 0 0 .027-.218v-.712c0-.145.064-.246.191-.3a.83.83 0 0 1 .301-.082h1.587c.255 0 .51.054.766.164.255.11.492.255.71.437.183.183.33.401.439.657.109.255.164.529.164.82v41.467Z"/>
</svg>
